<svg width="181" height="56" viewBox="0 0 181 56" fill="none" xmlns="http://www.w3.org/2000/svg">
<path fill-rule="evenodd" clip-rule="evenodd" d="M180.32 2.86788C180.32 1.28399 179.098 0 177.59 0C176.082 0 174.86 1.28399 174.86 2.86788V11.6921H169.61C168.102 11.6921 166.88 12.9761 166.88 14.56C166.88 16.1439 168.102 17.4279 169.61 17.4279H174.86V26.2521C174.86 27.836 176.082 29.12 177.59 29.12C179.098 29.12 180.32 27.836 180.32 26.2521V2.86788ZM138.88 5.07797C138.88 3.51064 140.124 2.24006 141.658 2.24006H168.582C170.116 2.24006 171.36 3.51064 171.36 5.07797C171.36 6.64531 170.116 7.91589 168.582 7.91589H160.063L169.459 23.6861C170.257 25.0249 169.841 26.7709 168.531 27.5858C167.22 28.4008 165.511 27.9761 164.713 26.6372L155.163 10.6088L145.977 26.5982C145.2 27.9499 143.498 28.4025 142.175 27.6091C140.852 26.8158 140.409 25.0768 141.185 23.7251L150.268 7.91589H141.658C140.124 7.91589 138.88 6.64531 138.88 5.07797ZM141.12 33.0306C141.12 31.4894 142.334 30.2399 143.831 30.2399H177.609C179.106 30.2399 180.32 31.4894 180.32 33.0306V53.2093C180.32 54.7505 179.106 55.9999 177.609 55.9999C176.112 55.9999 174.899 54.7505 174.899 53.2093V35.8213H143.831C142.334 35.8213 141.12 34.5718 141.12 33.0306Z" fill="black"/>
<path fill-rule="evenodd" clip-rule="evenodd" d="M98.2525 22.5924V5.59548C101.219 5.22571 103.276 5.39893 105.019 6.15071C106.898 6.9608 108.694 8.56566 110.88 11.6325V22.5924H98.2525ZM113.076 26.8801H96.1662C95.014 26.8801 94.08 25.9203 94.08 24.7363V3.74157C94.08 2.69368 94.8171 1.79934 95.823 1.62694C99.9959 0.911728 103.463 0.82962 106.634 2.19708C109.077 3.25081 111.141 5.07672 113.177 7.66744C115.32 5.07672 117.493 3.25081 120.065 2.19708C123.403 0.82962 127.053 0.911728 131.445 1.62694C132.504 1.79934 133.28 2.69368 133.28 3.74157V24.7363C133.28 25.9203 132.297 26.8801 131.084 26.8801H113.274H113.076ZM115.36 22.5924H128.888V5.59548C125.766 5.22571 123.6 5.39893 121.765 6.15071C119.72 6.9883 117.769 8.67552 115.36 11.9499V22.5924ZM114.24 40.32C112.712 40.32 111.474 39.0163 111.474 37.408V36.064L95.7264 36.064C94.1985 36.064 92.96 34.7603 92.96 33.152C92.96 31.5438 94.1985 30.24 95.7264 30.24L132.754 30.24C134.281 30.24 135.52 31.5438 135.52 33.152C135.52 34.7603 134.281 36.064 132.754 36.064H117.006V37.408C117.006 39.0163 115.768 40.32 114.24 40.32ZM114.24 40.32H131.612C133.152 40.32 134.4 41.5876 134.4 43.1512V53.1689C134.4 54.7325 133.152 56 131.612 56C130.072 56 128.824 54.7325 128.824 53.1689V45.9823H96.868C95.3282 45.9823 94.08 44.7147 94.08 43.1512C94.08 41.5876 95.3282 40.32 96.868 40.32H114.24ZM99.68 15.55C99.68 14.8597 100.24 14.3 100.93 14.3H107.39C108.08 14.3 108.64 14.8597 108.64 15.55C108.64 16.2404 108.08 16.8 107.39 16.8H100.93C100.24 16.8 99.68 16.2404 99.68 15.55ZM118.85 14.3C118.16 14.3 117.6 14.8597 117.6 15.55C117.6 16.2404 118.16 16.8 118.85 16.8H125.31C126 16.8 126.56 16.2404 126.56 15.55C126.56 14.8597 126 14.3 125.31 14.3H118.85Z" fill="#72B2BF"/>
<path fill-rule="evenodd" clip-rule="evenodd" d="M87.3599 2.86788C87.3599 1.28399 86.1377 0 84.6299 0C83.1222 0 81.8999 1.28399 81.8999 2.86788V11.6921H76.6499C75.1422 11.6921 73.9199 12.9761 73.9199 14.56C73.9199 16.1439 75.1422 17.4279 76.6499 17.4279H81.8999V26.2521C81.8999 27.836 83.1222 29.12 84.6299 29.12C86.1377 29.12 87.3599 27.836 87.3599 26.2521V2.86788ZM44.7998 5.07797C44.7998 3.51064 46.0435 2.24006 47.5777 2.24006H74.5019C76.0361 2.24006 77.2798 3.51064 77.2798 5.07797C77.2798 6.64531 76.0361 7.91589 74.5019 7.91589H65.9827L75.379 23.6861C76.1767 25.0249 75.761 26.7709 74.4505 27.5858C73.14 28.4008 71.4309 27.9761 70.6332 26.6372L61.0832 10.6088L51.8966 26.5982C51.1199 27.9499 49.4178 28.4025 48.0947 27.6091C46.7716 26.8158 46.3285 25.0768 47.1052 23.7251L56.1882 7.91589H47.5777C46.0435 7.91589 44.7998 6.64531 44.7998 5.07797ZM47.0399 33.0306C47.0399 31.4894 48.2881 30.2399 49.8279 30.2399H84.5718C86.1116 30.2399 87.3598 31.4894 87.3598 33.0306V53.2093C87.3598 54.7505 86.1116 55.9999 84.5718 55.9999C83.0319 55.9999 81.7837 54.7505 81.7837 53.2093V35.8213H49.8279C48.2881 35.8213 47.0399 34.5718 47.0399 33.0306Z" fill="black"/>
<path fill-rule="evenodd" clip-rule="evenodd" d="M4.39225 22.5924V5.59548C7.51437 5.22571 9.6803 5.39893 11.5153 6.15071C13.5597 6.9883 15.5111 8.67552 17.92 11.9499V22.5924H4.39225ZM19.9944 26.8801H2.19617C0.983313 26.8801 9.59232e-05 25.9203 9.59232e-05 24.7363V3.74157C9.59232e-05 2.69368 0.776077 1.79934 1.83488 1.62694C6.22742 0.911728 9.87717 0.82962 13.215 2.19708C15.7869 3.25081 17.9596 5.07672 20.1026 7.66746C22.1385 5.07674 24.2025 3.25084 26.6459 2.19712C29.8168 0.829654 33.2841 0.911762 37.457 1.62697C38.4628 1.79937 39.2 2.69371 39.2 3.74161V24.7363C39.2 25.9203 38.266 26.8801 37.1137 26.8801H20.0063L19.9944 26.8801ZM22.4001 22.5925H35.0275V5.59551C32.0615 5.22575 30.0038 5.39897 28.2606 6.15075C26.3822 6.96083 24.5864 8.56569 22.4001 11.6325V22.5925ZM21.28 40.3201C19.7522 40.3201 18.5136 39.0163 18.5136 37.4081V36.0641L2.7664 36.0641C1.23856 36.0641 -1.42769e-07 34.7603 0 33.1521C1.42769e-07 31.5438 1.23856 30.2401 2.7664 30.2401L39.7936 30.2401C41.3214 30.2401 42.56 31.5438 42.56 33.1521C42.56 34.7603 41.3214 36.0641 39.7936 36.0641H24.0464V37.4081C24.0464 39.0163 22.8078 40.3201 21.28 40.3201ZM21.28 40.3201H37.6094C39.1064 40.3201 40.32 41.5876 40.32 43.1512V53.169C40.32 54.7325 39.1064 56.0001 37.6094 56.0001C36.1123 56.0001 34.8987 54.7325 34.8987 53.169V45.9823H3.83064C2.3336 45.9823 1.12 44.7148 1.12 43.1512C1.12 41.5876 2.3336 40.3201 3.83064 40.3201H21.28ZM6.72003 15.5501C6.72003 14.8597 7.27967 14.3001 7.97003 14.3001H14.43C15.1204 14.3001 15.68 14.8597 15.68 15.5501C15.68 16.2404 15.1204 16.8001 14.43 16.8001H7.97003C7.27967 16.8001 6.72003 16.2404 6.72003 15.5501ZM25.89 14.3001C25.1996 14.3001 24.64 14.8597 24.64 15.5501C24.64 16.2404 25.1996 16.8001 25.89 16.8001H32.35C33.0404 16.8001 33.6 16.2404 33.6 15.5501C33.6 14.8597 33.0404 14.3001 32.35 14.3001H25.89Z" fill="#72B2BF"/>
</svg>
