<svg width="37" height="37" viewBox="0 0 37 37" fill="none" xmlns="http://www.w3.org/2000/svg">
<circle cx="18.5" cy="18.5" r="18" fill="white" stroke="#E0E0E0"/>
<path d="M22.3337 19.9988L21.6071 20.5329L22.445 20.8663C24.7576 21.7864 26.6854 23.4409 27.9202 25.5615C27.9933 25.6984 28.0096 25.8564 27.9667 26.0038C27.9232 26.1533 27.8212 26.2834 27.6788 26.364C27.536 26.4448 27.3656 26.4686 27.2041 26.429C27.0452 26.39 26.9103 26.2934 26.8253 26.1626C25.0277 23.1248 21.852 21.308 18.3335 21.308C14.812 21.308 11.6337 23.127 9.83698 26.1707L9.83273 26.1779L9.82873 26.1852C9.78971 26.2567 9.73603 26.3204 9.6704 26.3723C9.60473 26.4241 9.52854 26.463 9.44618 26.486L9.58073 26.9676L9.44618 26.486C9.3638 26.509 9.27736 26.5156 9.19212 26.5053C9.10687 26.4949 9.02505 26.468 8.9515 26.4263C8.87798 26.3847 8.81445 26.3294 8.76429 26.2642C8.71415 26.199 8.67832 26.1252 8.65842 26.0473C8.63852 25.9694 8.63483 25.8885 8.64751 25.8093C8.66018 25.7301 8.68905 25.6537 8.73283 25.5847L8.73804 25.5765L8.74292 25.5681C9.97766 23.4443 11.907 21.7874 14.222 20.8663L15.0599 20.5329L14.3333 19.9988C13.2151 19.1769 12.3907 18.0323 11.9751 16.7282C11.5595 15.4243 11.573 14.0255 12.0138 12.7295C12.4547 11.4333 13.3011 10.3041 14.4351 9.50304C15.5693 8.70188 16.9332 8.27002 18.3335 8.27002C19.7338 8.27002 21.0977 8.70188 22.2319 9.50304C23.3659 10.3041 24.2123 11.4333 24.6532 12.7295C25.094 14.0255 25.1075 15.4243 24.6919 16.7282C24.2763 18.0323 23.4519 19.1769 22.3337 19.9988ZM12.9342 14.7904L12.9342 14.791C12.9359 16.1997 13.5077 17.5481 14.5208 18.5411C15.5337 19.5337 16.9048 20.0903 18.3329 20.0919H18.3335C19.3992 20.0919 20.4417 19.7823 21.3293 19.201C22.2171 18.6197 22.9105 17.7924 23.3204 16.8225C23.7304 15.8525 23.8378 14.7846 23.6287 13.7542C23.4195 12.7239 22.9036 11.7789 22.1478 11.0381C21.3921 10.2975 20.4304 9.79417 19.385 9.59037C18.3396 9.38658 17.2559 9.49109 16.2705 9.89109C15.2851 10.2911 14.4412 10.9692 13.8468 11.8412C13.2522 12.7132 12.9342 13.7396 12.9342 14.7904Z" fill="#706B6B" stroke="#E0E0E0"/>
</svg>
